<svg width="81" height="81" viewBox="0 0 81 81" fill="none" xmlns="http://www.w3.org/2000/svg">
<ellipse cx="40.5" cy="39.5" rx="40.5" ry="39.5" fill="#E4D0C4"/>
<ellipse cx="41.8388" cy="22.2258" rx="2.00748" ry="2.02734" fill="#D13737"/>
<path fill-rule="evenodd" clip-rule="evenodd" d="M25.8527 31.2634V31.3267L25.791 31.39V42.8522C25.791 43.2321 26.0379 43.4854 26.4082 43.4854H26.5316L53.3195 38.4193C53.6281 38.356 53.8133 38.1027 53.8133 37.786V26.4506C53.8133 26.3764 53.7921 26.3239 53.7746 26.2804C53.7622 26.2497 53.7516 26.2235 53.7516 26.1973V26.1339C51.9616 22.9043 48.6286 20.8145 44.1228 20.1179C43.6907 19.6746 43.1969 19.4213 42.6414 19.2946C42.7031 17.9015 42.5797 14.7351 39.8021 13.2153C39.4935 13.0886 39.1232 13.2153 38.938 13.5319C38.7528 13.8485 38.8763 14.2285 39.1849 14.4185C41.3452 15.5584 41.4687 18.2181 41.3452 19.358C40.9132 19.4213 40.4811 19.6113 40.1108 19.9279C39.1849 19.9279 38.1973 19.9912 37.2715 20.1179C37.148 20.1812 37.0246 20.2445 36.9629 20.3079L25.9761 31.0734L25.9144 31.1367C25.9144 31.1684 25.899 31.1842 25.8835 31.2001C25.8681 31.2159 25.8527 31.2317 25.8527 31.2634ZM40.2753 21.7199C40.522 21.0083 41.1848 20.4978 41.9625 20.4978C42.95 20.4978 43.7524 21.3211 43.7524 22.3343C43.7524 23.0928 43.3028 23.7448 42.6624 24.0247C42.5172 23.8564 42.3347 23.6721 42.3347 23.6721L40.7453 22.1976C40.7453 22.1976 40.7453 22.1976 40.2753 21.7199ZM39.1872 23.5042C39.0497 23.1192 39.0119 22.9139 38.9997 22.5243C38.9833 21.9962 39.0615 21.6377 39.2466 21.1944C39.0647 21.2114 38.8916 21.2284 38.731 21.2441C38.2921 21.2872 37.946 21.3211 37.7653 21.3211L37.0997 21.9725C37.217 21.9626 37.3535 21.9544 37.5052 21.9453C37.7278 21.932 37.9833 21.9168 38.2591 21.891C37.6418 23.4742 38.3825 25.2473 39.8639 25.9439C40.9871 26.4721 42.2878 26.1265 43.1471 25.2659C42.8198 25.4042 42.5099 25.4862 42.0859 25.5007C41.5525 25.5189 41.2306 25.4567 40.7453 25.2324C40.3642 25.0562 40.1573 24.9226 39.8639 24.6232C39.5072 24.2593 39.3664 24.0063 39.1872 23.5042ZM44.9861 22.5869C47.5102 23.2808 49.4425 24.4719 50.8475 26.1932L52.1468 25.9439C50.6037 23.7275 48.1348 22.2077 44.8634 21.5744C44.9252 21.8277 44.9869 22.081 44.9869 22.3343C44.99 22.4194 44.9897 22.5036 44.9861 22.5869ZM27.0254 39.3894L51.653 34.873V37.3905L52.5789 37.2161V34.1764L27.0254 38.9259V39.3894ZM51.5913 33.0301L52.5789 32.8466V30.9468L27.0254 35.6963V36.6526L51.5913 32.0866V33.0301ZM27.0254 32.5423L32.704 31.4534L51.653 27.9071V29.8523L52.5789 29.6802V27.1472L33.6298 30.7568L27.0254 32.0233V32.5423Z" fill="#873C1B"/>
<path d="M14.4119 59.9969C14.7665 60.1121 15.1401 60.1697 15.5327 60.1697C16.4192 60.1697 17.2994 59.9905 18.1733 59.6321C19.0598 59.2865 19.8894 58.8001 20.6619 58.1729C21.4344 57.5329 22.1183 56.7905 22.7136 55.9458C23.3215 55.0882 23.7964 54.1538 24.1384 53.1426C24.4803 52.1186 24.6513 51.0498 24.6513 49.9363C24.6513 48.9507 24.493 48.0611 24.1764 47.2675C23.8597 46.4739 23.3532 45.8467 22.6566 45.3859C21.9727 44.9123 21.0608 44.6756 19.921 44.6756C19.1105 44.6756 18.3443 44.7971 17.6224 45.0403C16.9005 45.2707 16.2609 45.5779 15.7037 45.9619C15.1591 46.3459 14.7285 46.7683 14.4119 47.2291C14.1079 47.6771 13.9559 48.1251 13.9559 48.5731C13.9559 48.8675 14.0383 49.1235 14.2029 49.3411C14.3802 49.5459 14.6778 49.6483 15.0958 49.6483C15.0324 49.4563 15.0008 49.2195 15.0008 48.9379C15.0008 48.2339 15.1907 47.6003 15.5707 47.0371C15.9506 46.4739 16.4699 46.0259 17.1284 45.6931C17.787 45.3603 18.5279 45.1939 19.3511 45.1939C20.5036 45.1939 21.4408 45.5587 22.1627 46.2883C22.8846 47.0179 23.2455 48.1635 23.2455 49.7251C23.2455 50.6722 23.1062 51.6258 22.8276 52.5858C22.5616 53.533 22.1817 54.4354 21.6877 55.293C21.1938 56.1378 20.6176 56.8929 19.959 57.5585C19.3131 58.2113 18.6102 58.7233 17.8503 59.0945C17.1031 59.4785 16.3242 59.6705 15.5137 59.6705C15.2731 59.6705 15.0008 59.6449 14.6968 59.5937C14.8995 58.6721 15.1527 57.6481 15.4567 56.5217C15.7607 55.3954 16.0963 54.2434 16.4635 53.0658C16.8308 51.8754 17.2108 50.7234 17.6034 49.6099C18.0086 48.4963 18.4076 47.4787 18.8002 46.5571C18.6229 46.4291 18.4456 46.3651 18.2683 46.3651C18.015 46.3651 17.787 46.4867 17.5844 46.7299C17.3817 46.9731 17.2108 47.2419 17.0715 47.5363C16.9321 47.8179 16.8372 48.0291 16.7865 48.1699C16.6725 48.4643 16.5142 48.9187 16.3116 49.5331C16.1089 50.1475 15.8746 50.8642 15.6087 51.6834C15.3554 52.4898 15.0958 53.341 14.8298 54.237C14.5638 55.133 14.3105 56.0226 14.0699 56.9057C13.8419 57.7761 13.652 58.5761 13.5 59.3057C13.7533 59.6641 14.0572 59.8945 14.4119 59.9969Z" fill="#873C1B"/>
<path d="M26.994 59.5745C27.5386 59.9713 28.1718 60.1697 28.8937 60.1697C29.5016 60.1697 30.1412 60.0161 30.8124 59.7089C31.4963 59.4145 32.1612 58.9729 32.8071 58.3841C33.453 57.7825 34.0356 57.0465 34.5548 56.1762C35.0868 55.3058 35.5047 54.301 35.8087 53.1618C36.1253 52.0098 36.2836 50.7362 36.2836 49.3411C36.2836 48.9699 36.2583 48.5731 36.2076 48.1507C36.1696 47.7155 36.0873 47.3123 35.9606 46.9411C35.8466 46.5571 35.682 46.2435 35.4667 46.0003C35.2641 45.7571 34.9981 45.6355 34.6688 45.6355C34.3522 45.6355 33.9976 45.7635 33.605 46.0195C33.2124 46.2627 32.8324 46.5827 32.4652 46.9795C32.1106 47.3635 31.8129 47.7667 31.5723 48.1891C31.3443 48.5987 31.2304 48.9763 31.2304 49.3219C31.2304 49.5267 31.3 49.7187 31.4393 49.8979C31.5913 50.0643 31.8256 50.1859 32.1422 50.2627C32.2182 49.9043 32.3512 49.4947 32.5412 49.0339C32.7311 48.5603 32.9464 48.1059 33.1871 47.6707C33.4404 47.2355 33.7 46.8771 33.9659 46.5955C34.2319 46.3011 34.4789 46.1539 34.7068 46.1539C34.9221 46.1539 35.0931 46.3011 35.2197 46.5955C35.3464 46.8899 35.435 47.2419 35.4857 47.6515C35.5364 48.0611 35.5617 48.4451 35.5617 48.8035C35.5617 49.7123 35.4604 50.6658 35.2577 51.6642C35.0678 52.6498 34.7891 53.6098 34.4219 54.5442C34.0673 55.4658 33.6367 56.3042 33.1301 57.0593C32.6361 57.8145 32.0789 58.4097 31.4583 58.8449C30.8378 59.2929 30.1729 59.5169 29.4636 59.5169C28.8684 59.5169 28.3808 59.3377 28.0009 58.9793C27.6209 58.6337 27.3423 58.1665 27.165 57.5777C27.0003 56.9889 26.918 56.3554 26.918 55.677C26.918 54.7426 27.0573 53.7762 27.336 52.7778C27.6146 51.7794 27.9945 50.8194 28.4758 49.8979C28.957 48.9635 29.5016 48.1251 30.1095 47.3827C30.7174 46.6275 31.357 46.0323 32.0282 45.5971C32.6995 45.1491 33.3644 44.9251 34.0229 44.9251H34.2509C33.9723 44.7715 33.5923 44.6948 33.1111 44.6948C32.3892 44.6948 31.6546 44.9059 30.9074 45.3283C30.1602 45.7507 29.451 46.3267 28.7797 47.0563C28.1085 47.7731 27.5069 48.5923 26.975 49.5139C26.4431 50.4355 26.0188 51.4018 25.7022 52.413C25.3983 53.4242 25.2463 54.4226 25.2463 55.4082C25.2463 56.3682 25.3983 57.2065 25.7022 57.9233C26.0188 58.6401 26.4494 59.1905 26.994 59.5745Z" fill="#873C1B"/>
<path fill-rule="evenodd" clip-rule="evenodd" d="M42.5942 59.8817C43.1514 60.0737 43.658 60.1697 44.1139 60.1697C44.5699 60.1697 44.9625 60.0417 45.2918 59.7857C45.6337 59.5425 45.906 59.1265 46.1086 58.5377C45.716 58.7425 45.2664 58.8449 44.7598 58.8449C44.0633 58.8449 43.2654 58.7169 42.3662 58.4609C41.4797 58.1921 40.5995 57.9233 39.7256 57.6545C40.0929 57.0913 40.4348 56.4514 40.7515 55.7346C41.0681 55.005 41.3657 54.237 41.6443 53.4306C41.9356 52.6242 42.2079 51.8306 42.4612 51.0498H42.8221C43.5947 51.037 44.2659 50.8898 44.8358 50.6082C45.4057 50.3139 45.8743 49.9427 46.2416 49.4947C46.6089 49.0339 46.8812 48.5539 47.0585 48.0547C47.2358 47.5427 47.3244 47.0691 47.3244 46.6339C47.3244 46.1219 47.2231 45.7251 47.0205 45.4435C46.8179 45.1619 46.5709 44.9635 46.2796 44.8483C46.001 44.7332 45.735 44.6756 45.4817 44.6756C44.8485 44.6756 44.2849 44.9443 43.791 45.4819C43.2971 46.0067 42.8538 46.7043 42.4612 47.5747C42.0813 48.4451 41.7266 49.3923 41.3974 50.4163C41.0807 50.2371 40.8211 49.9875 40.6185 49.6675C40.4158 49.3347 40.3145 48.9251 40.3145 48.4387C40.3145 48.2595 40.3335 48.0483 40.3715 47.8051C40.4095 47.5619 40.4728 47.3763 40.5615 47.2483C40.2069 47.2483 39.9219 47.4211 39.7066 47.7667C39.4913 48.0995 39.3837 48.4323 39.3837 48.7651C39.3837 49.2003 39.5483 49.6035 39.8776 49.9747C40.2195 50.3459 40.6818 50.6275 41.2644 50.8194L40.5045 53.2386C40.2512 54.045 39.9916 54.8066 39.7256 55.5234C39.4723 56.2402 39.1937 56.8673 38.8897 57.4049C38.4591 57.2897 38.0412 57.1937 37.6359 57.1169C37.2433 57.0401 36.8824 57.0017 36.5531 57.0017C36.0465 57.0017 35.6919 57.0849 35.4893 57.2513C35.274 57.4177 35.1663 57.6161 35.1663 57.8465C35.1663 58.0513 35.2423 58.2817 35.3943 58.5377C35.5336 58.8065 35.7489 59.0369 36.0402 59.2289C36.3188 59.4209 36.6608 59.5169 37.066 59.5169C37.4713 59.5169 37.8449 59.4145 38.1869 59.2097C38.5288 59.0177 38.8581 58.7425 39.1747 58.3841C39.7446 58.6401 40.3209 58.9025 40.9034 59.1713C41.486 59.4529 42.0496 59.6897 42.5942 59.8817ZM44.1139 50.2051C43.658 50.5251 43.1451 50.6851 42.5752 50.6851C42.9045 49.6995 43.2211 48.7907 43.525 47.9587C43.8416 47.1139 44.1709 46.4355 44.5129 45.9235C44.8548 45.4115 45.2221 45.1555 45.6147 45.1555C45.792 45.1555 45.9503 45.2259 46.0896 45.3667C46.229 45.4947 46.2986 45.7443 46.2986 46.1155C46.2986 46.4995 46.2099 46.9475 46.0326 47.4595C45.868 47.9715 45.621 48.4771 45.2918 48.9763C44.9751 49.4627 44.5825 49.8723 44.1139 50.2051ZM37.7689 58.7297C37.5283 58.8833 37.2687 58.9601 36.99 58.9601C36.5974 58.9601 36.2808 58.8321 36.0402 58.5761C35.7869 58.3201 35.6602 58.0833 35.6602 57.8657C35.6602 57.7505 35.7046 57.6609 35.7932 57.5969C35.8819 57.5329 36.0465 57.5009 36.2871 57.5009C36.5911 57.5009 36.9267 57.5585 37.294 57.6737C37.6739 57.7761 38.0602 57.9105 38.4528 58.0769C38.2502 58.3585 38.0222 58.5761 37.7689 58.7297Z" fill="#873C1B"/>
<path d="M49.0852 59.4785C49.6425 59.9393 50.3707 60.1697 51.2699 60.1697C52.1184 60.1697 52.91 59.9585 53.6445 59.5361C54.3791 59.1265 55.044 58.5761 55.6392 57.8849C56.2345 57.1809 56.7411 56.413 57.159 55.581L56.893 55.389C56.5638 56.1186 56.1205 56.7969 55.5632 57.4241C55.006 58.0513 54.3918 58.5569 53.7205 58.9409C53.062 59.3249 52.3971 59.5169 51.7258 59.5169C51.0926 59.5169 50.5733 59.3377 50.1681 58.9793C49.7755 58.6337 49.4905 58.1793 49.3132 57.6161C49.1359 57.0401 49.0472 56.4385 49.0472 55.8114C49.0472 54.941 49.1739 54.0258 49.4272 53.0658C49.6931 52.1058 50.0478 51.165 50.491 50.2435C50.9343 49.3219 51.4282 48.4899 51.9728 47.7475C52.53 46.9923 53.1 46.3907 53.6825 45.9427C54.2778 45.4947 54.8477 45.2707 55.3923 45.2707C55.7215 45.2707 55.9558 45.3539 56.0952 45.5203C56.2471 45.6739 56.3231 45.8787 56.3231 46.1347C56.3231 46.4035 56.2535 46.7171 56.1142 47.0755C55.9875 47.4211 55.8165 47.7795 55.6012 48.1507C55.3859 48.5091 55.158 48.8547 54.9173 49.1875C54.6894 49.5075 54.4804 49.7763 54.2904 49.9939C54.3664 50.1603 54.4551 50.2755 54.5564 50.3395C54.6704 50.4035 54.778 50.4355 54.8793 50.4355C55.1453 50.4355 55.4049 50.2947 55.6582 50.0131C55.9242 49.7315 56.1648 49.3795 56.3801 48.9571C56.5954 48.5219 56.7664 48.0739 56.893 47.6131C57.0197 47.1395 57.083 46.7171 57.083 46.3459C57.083 45.7443 56.9184 45.3219 56.5891 45.0787C56.2725 44.8228 55.8545 44.6948 55.3353 44.6948C54.6134 44.6948 53.8788 44.9059 53.1316 45.3283C52.3971 45.7379 51.6942 46.3075 51.0229 47.0371C50.3517 47.7539 49.7501 48.5795 49.2182 49.5139C48.699 50.4355 48.2874 51.4082 47.9834 52.4322C47.6795 53.4562 47.5275 54.4738 47.5275 55.485C47.5275 56.2658 47.6478 57.0145 47.8884 57.7313C48.1417 58.4481 48.5407 59.0305 49.0852 59.4785Z" fill="#873C1B"/>
<path d="M58.8867 59.6897C59.4439 60.0097 60.1025 60.1697 60.8624 60.1697C61.7109 60.1697 62.5025 59.9649 63.237 59.5553C63.9716 59.1585 64.6365 58.6145 65.2317 57.9233C65.827 57.2321 66.3462 56.4514 66.7895 55.581L66.5235 55.389C66.1942 56.1186 65.751 56.7969 65.1937 57.4241C64.6365 58.0513 64.0222 58.5569 63.351 58.9409C62.6924 59.3249 62.0275 59.5169 61.3563 59.5169C60.7611 59.5169 60.2861 59.3697 59.9315 59.0753C59.5769 58.7937 59.3173 58.4417 59.1526 58.0193C59.0007 57.5841 58.9247 57.1553 58.9247 56.7329C58.9247 56.0546 59.0957 55.3698 59.4376 54.6786C59.7922 53.9874 60.2798 53.3858 60.9004 52.8738C61.5336 52.3618 62.2745 52.0354 63.123 51.8946C62.6671 51.4978 62.3695 51.0306 62.2302 50.4931C62.0909 49.9555 62.0212 49.4563 62.0212 48.9955C62.0212 48.2915 62.1225 47.6515 62.3252 47.0755C62.5405 46.4867 62.8507 46.0195 63.256 45.6739C63.6613 45.3155 64.1552 45.1363 64.7378 45.1363C65.1811 45.1363 65.5167 45.2451 65.7446 45.4627C65.9726 45.6803 66.0866 45.9875 66.0866 46.3843C66.0866 46.8835 65.9283 47.3571 65.6117 47.8051C65.3077 48.2403 64.9341 48.6563 64.4908 49.0531C64.5668 49.2195 64.6681 49.3667 64.7948 49.4947C64.9214 49.6099 65.0544 49.6675 65.1937 49.6675C65.409 49.6675 65.6307 49.5267 65.8586 49.2451C66.0992 48.9635 66.3019 48.5987 66.4665 48.1507C66.6312 47.7027 66.7135 47.2419 66.7135 46.7683C66.7135 46.1027 66.5299 45.5907 66.1626 45.2323C65.7953 44.8739 65.257 44.6948 64.5478 44.6948C63.8006 44.6948 63.1294 44.8867 62.5341 45.2707C61.9389 45.6419 61.4703 46.1347 61.1283 46.7491C60.7991 47.3507 60.6344 47.9907 60.6344 48.6691C60.6344 49.2067 60.7484 49.7443 60.9764 50.2819C61.217 50.8194 61.5843 51.293 62.0782 51.7026C61.3943 51.7666 60.7547 51.9522 60.1595 52.2594C59.5643 52.5538 59.0387 52.9378 58.5827 53.4114C58.1395 53.8722 57.7912 54.3842 57.5379 54.9474C57.2846 55.5106 57.158 56.0866 57.158 56.6753C57.158 57.3025 57.3036 57.8849 57.5949 58.4225C57.8988 58.9473 58.3294 59.3697 58.8867 59.6897Z" fill="#873C1B"/>
<path d="M33.4366 64.9356C33.5717 65.0722 33.7406 65.1404 33.9432 65.1404C34.1501 65.1404 34.3548 65.0828 34.5575 64.9676C34.7601 64.8524 34.9459 64.6946 35.1147 64.494C35.2836 64.2892 35.4166 64.0589 35.5137 63.8029L35.4313 63.7389C35.3427 63.9735 35.2245 64.1783 35.0767 64.3532C34.929 64.5282 34.7685 64.6626 34.5955 64.7564C34.4266 64.8503 34.2577 64.8972 34.0889 64.8972C33.9073 64.8972 33.7849 64.8418 33.7216 64.7308C33.6583 64.6199 33.6266 64.4983 33.6266 64.366C33.6266 64.2082 33.6583 64.0396 33.7216 63.8605C33.7891 63.6813 33.8736 63.5106 33.9749 63.3485C34.0804 63.1863 34.1923 63.0541 34.3105 62.9517C34.4329 62.8493 34.5511 62.7981 34.6651 62.7981C34.72 62.7981 34.7559 62.813 34.7728 62.8429C34.7939 62.8685 34.8044 62.9069 34.8044 62.9581C34.8044 63.0519 34.7812 63.1522 34.7348 63.2589C34.6883 63.3613 34.6335 63.4295 34.5701 63.4637C34.6208 63.5277 34.682 63.5597 34.7538 63.5597C34.8509 63.5597 34.9269 63.5127 34.9817 63.4189C35.0408 63.325 35.0704 63.2162 35.0704 63.0925C35.0704 62.9815 35.0387 62.8749 34.9754 62.7725C34.9121 62.6701 34.7939 62.6189 34.6208 62.6189C34.4604 62.6189 34.2978 62.6679 34.1332 62.7661C33.9686 62.8599 33.8187 62.9879 33.6836 63.1501C33.5485 63.3122 33.4388 63.4957 33.3543 63.7005C33.2741 63.901 33.234 64.1079 33.234 64.3212C33.234 64.5943 33.3016 64.7991 33.4366 64.9356Z" fill="#873C1B"/>
<path d="M35.5089 64.9484C35.5975 65.038 35.7073 65.0828 35.8381 65.0828C35.9943 65.0828 36.1463 65.021 36.2941 64.8972C36.446 64.7735 36.6128 64.5879 36.7943 64.3404C36.7817 64.4087 36.7753 64.4706 36.7753 64.526C36.7753 64.637 36.8112 64.7394 36.883 64.8332C36.959 64.9271 37.0751 64.974 37.2313 64.974C37.3832 64.974 37.5373 64.925 37.6935 64.8268C37.8539 64.7287 38.0038 64.5922 38.1431 64.4172C38.2824 64.2423 38.3964 64.0396 38.4851 63.8093L38.4217 63.7453C38.2318 64.0823 38.0439 64.3362 37.8582 64.5068C37.6724 64.6732 37.5225 64.7564 37.4086 64.7564C37.3326 64.7564 37.2777 64.7266 37.2439 64.6668C37.2101 64.6028 37.1933 64.5388 37.1933 64.4748C37.1933 64.398 37.2123 64.317 37.2503 64.2316C37.2882 64.142 37.3305 64.0546 37.3769 63.9692C37.4233 63.8839 37.4656 63.8092 37.5036 63.7453C37.5415 63.677 37.5605 63.6237 37.5605 63.5853C37.5605 63.5383 37.5289 63.5021 37.4656 63.4765C37.4022 63.4466 37.3516 63.4295 37.3136 63.4253C37.3094 63.4253 37.2988 63.4381 37.2819 63.4637C37.1975 63.5917 37.1004 63.7325 36.9906 63.8861C36.8809 64.0396 36.7648 64.189 36.6423 64.334C36.5241 64.4748 36.4081 64.5922 36.2941 64.686C36.1801 64.7756 36.0745 64.8204 35.9775 64.8204C35.8635 64.8204 35.8065 64.7372 35.8065 64.5708C35.8065 64.4471 35.8318 64.3063 35.8825 64.1484C35.9331 63.9906 36.0028 63.8306 36.0914 63.6685C36.1801 63.5063 36.2814 63.357 36.3954 63.2205C36.5094 63.0797 36.6276 62.9687 36.75 62.8877C36.8724 62.8023 36.9927 62.7597 37.1109 62.7597C37.2249 62.7597 37.3051 62.7959 37.3516 62.8685C37.398 62.9367 37.4212 63.0199 37.4212 63.1181C37.4212 63.1906 37.4107 63.2653 37.3896 63.3421C37.4824 63.3421 37.5563 63.3229 37.6112 63.2845C37.6703 63.2461 37.6999 63.1735 37.6999 63.0669C37.6999 62.9218 37.645 62.8066 37.5352 62.7213C37.4255 62.6317 37.2882 62.5869 37.1236 62.5869C36.959 62.5869 36.7922 62.6295 36.6234 62.7149C36.4587 62.8002 36.3004 62.9154 36.1484 63.0605C36.0007 63.2013 35.8677 63.3591 35.7495 63.5341C35.6313 63.7047 35.5384 63.8797 35.4709 64.0588C35.4033 64.2338 35.3695 64.398 35.3695 64.5516C35.3695 64.7308 35.416 64.8631 35.5089 64.9484Z" fill="#873C1B"/>
<path fill-rule="evenodd" clip-rule="evenodd" d="M40.0906 64.9036C40.175 64.9847 40.2764 65.0252 40.3946 65.0252C40.5423 65.0252 40.6901 64.9655 40.8378 64.846C40.9898 64.7308 41.127 64.5815 41.2494 64.398C41.3719 64.2103 41.4626 64.0119 41.5217 63.8029L41.4584 63.7389C41.3275 64.029 41.184 64.2764 41.0278 64.4812C40.8716 64.6818 40.7027 64.782 40.5212 64.782C40.4368 64.782 40.365 64.7479 40.3059 64.6796C40.2468 64.6071 40.1962 64.5218 40.1539 64.4236C40.1159 64.3255 40.0864 64.2316 40.0653 64.142C40.0442 64.0524 40.0315 63.9906 40.0273 63.9564C40.0906 63.9564 40.1708 63.9436 40.2679 63.918C40.3692 63.8882 40.4684 63.8455 40.5655 63.7901C40.6669 63.7303 40.7513 63.6535 40.8188 63.5597C40.8906 63.4615 40.9265 63.3442 40.9265 63.2077C40.9265 63.0498 40.8716 62.9154 40.7618 62.8045C40.6521 62.6935 40.5191 62.6381 40.3629 62.6381C40.2067 62.6381 40.0568 62.6978 39.9133 62.8173C39.7698 62.9367 39.6368 63.0903 39.5144 63.2781C39.3919 63.4658 39.2822 63.6621 39.1851 63.8669C39.0922 64.0716 39.012 64.2594 38.9445 64.43C38.9445 64.2082 38.9782 63.9351 39.0458 63.6109C39.1175 63.2823 39.2231 62.9453 39.3624 62.5997C39.5481 62.4845 39.7191 62.3458 39.8753 62.1837C40.0357 62.0216 40.1729 61.8487 40.2869 61.6653C40.4051 61.4818 40.4959 61.3005 40.5592 61.1213C40.6225 60.9378 40.6542 60.7736 40.6542 60.6285C40.6542 60.5133 40.6352 60.4152 40.5972 60.3341C40.5634 60.253 40.517 60.2125 40.4579 60.2125C40.3819 60.2125 40.2827 60.2829 40.1603 60.4237C40.0378 60.5645 39.9049 60.7544 39.7613 60.9933C39.6178 61.2322 39.4743 61.4989 39.3307 61.7933C39.1872 62.0877 39.0542 62.3927 38.9318 62.7085C38.8136 63.0199 38.7186 63.3207 38.6468 63.6109C38.5751 63.901 38.5392 64.157 38.5392 64.3788C38.5392 64.477 38.5413 64.573 38.5455 64.6668C38.554 64.7564 38.573 64.8311 38.6025 64.8908C38.6363 64.9506 38.6891 64.9804 38.7608 64.9804C38.8115 64.9804 38.86 64.9655 38.9065 64.9356C38.9529 64.91 38.9888 64.8588 39.0141 64.782C39.0479 64.6839 39.0901 64.5602 39.1408 64.4108C39.1914 64.2615 39.2526 64.1037 39.3244 63.9373C39.3962 63.7709 39.4764 63.6151 39.565 63.4701C39.6579 63.3207 39.7613 63.2013 39.8753 63.1117C39.9893 63.0178 40.1117 62.9709 40.2426 62.9709C40.327 62.9709 40.4009 62.9965 40.4642 63.0477C40.5275 63.0989 40.5592 63.1693 40.5592 63.2589C40.5592 63.3655 40.5254 63.4594 40.4579 63.5405C40.3946 63.6173 40.3165 63.6813 40.2236 63.7325C40.1307 63.7794 40.04 63.8157 39.9513 63.8413C39.8627 63.8626 39.7951 63.8732 39.7487 63.8732C39.7487 63.9714 39.7592 64.0866 39.7803 64.2188C39.8057 64.3468 39.8415 64.4727 39.888 64.5964C39.9386 64.7202 40.0062 64.8226 40.0906 64.9036ZM39.9766 61.8061C39.8331 62.0066 39.6642 62.1858 39.47 62.3437C39.5925 62.0578 39.7191 61.7933 39.85 61.5501C39.9809 61.3026 40.0969 61.1042 40.1983 60.9549C40.3038 60.8056 40.3777 60.7309 40.4199 60.7309C40.4326 60.7309 40.4389 60.7501 40.4389 60.7885C40.4389 60.8952 40.3988 61.0424 40.3186 61.2301C40.2384 61.4136 40.1244 61.6056 39.9766 61.8061Z" fill="#873C1B"/>
<path fill-rule="evenodd" clip-rule="evenodd" d="M41.6629 64.846C41.7937 64.9911 41.9879 65.0636 42.2454 65.0636C42.4565 65.0636 42.6634 65.0103 42.866 64.9036C43.0729 64.8012 43.2628 64.6562 43.4359 64.4684C43.6132 64.2807 43.7589 64.0589 43.8729 63.8029L43.7969 63.7453C43.6913 63.95 43.5626 64.1378 43.4106 64.3084C43.2586 64.4791 43.094 64.6178 42.9167 64.7244C42.7394 64.8268 42.56 64.878 42.3784 64.878C42.1842 64.878 42.0513 64.8226 41.9795 64.7116C41.9119 64.5964 41.8782 64.4727 41.8782 64.3404C41.8782 64.3063 41.8803 64.27 41.8845 64.2316C41.8887 64.1932 41.8951 64.1527 41.9035 64.11C42.085 64.093 42.2666 64.0503 42.4481 63.9821C42.6338 63.9095 42.8027 63.8178 42.9547 63.7069C43.1109 63.5959 43.2354 63.4701 43.3283 63.3293C43.4254 63.1842 43.4739 63.0306 43.4739 62.8685C43.4739 62.7106 43.4317 62.6061 43.3473 62.5549C43.2671 62.5037 43.1784 62.4781 43.0813 62.4781C42.8956 62.4781 42.7077 62.5378 42.5177 62.6573C42.3278 62.7725 42.1526 62.9239 41.9922 63.1117C41.836 63.2994 41.7093 63.4999 41.6122 63.7133C41.5193 63.9266 41.4729 64.1292 41.4729 64.3212C41.4729 64.5303 41.5362 64.7052 41.6629 64.846ZM42.3214 63.8221C42.1779 63.8946 42.0491 63.95 41.9352 63.9884C41.9774 63.8349 42.0407 63.6813 42.1251 63.5277C42.2096 63.3741 42.3046 63.2333 42.4101 63.1053C42.5156 62.9773 42.6254 62.8749 42.7394 62.7981C42.8534 62.717 42.961 62.6765 43.0623 62.6765C43.1172 62.6765 43.1531 62.6893 43.17 62.7149C43.1869 62.7405 43.1953 62.7767 43.1953 62.8237C43.1953 62.9602 43.151 63.0903 43.0623 63.2141C42.9779 63.3378 42.8681 63.4509 42.733 63.5533C42.6022 63.6557 42.465 63.7453 42.3214 63.8221Z" fill="#873C1B"/>
<path fill-rule="evenodd" clip-rule="evenodd" d="M44.0819 64.974C44.2001 65.0636 44.3584 65.1084 44.5568 65.1084C44.7383 65.1084 44.9009 65.0658 45.0444 64.9804C45.1922 64.8951 45.2998 64.7607 45.3673 64.5772C45.5573 64.5474 45.7325 64.4727 45.8929 64.3532C46.0534 64.2295 46.1737 64.0503 46.2539 63.8157L46.1969 63.7517C46.0745 63.9906 45.9478 64.1655 45.8169 64.2764C45.6861 64.3831 45.5468 64.4492 45.399 64.4748C45.4243 64.3767 45.437 64.2722 45.437 64.1612C45.437 63.965 45.4096 63.7773 45.3547 63.5981C45.2998 63.4146 45.2449 63.2418 45.19 63.0797C45.1352 62.9133 45.1077 62.7597 45.1077 62.6189C45.1077 62.5463 45.1141 62.4866 45.1267 62.4397C45.1394 62.3927 45.1457 62.3586 45.1457 62.3373C45.1457 62.2818 45.1119 62.2541 45.0444 62.2541C44.9853 62.2541 44.9283 62.2882 44.8734 62.3565C44.8228 62.4205 44.7974 62.5314 44.7974 62.6893V62.7661C44.7172 62.9367 44.6244 63.0989 44.5188 63.2525C44.4133 63.4061 44.2972 63.5533 44.1705 63.6941C44.1536 63.7111 44.122 63.7282 44.0756 63.7453C44.0333 63.7623 43.9869 63.7879 43.9362 63.8221C43.8898 63.8562 43.8497 63.9074 43.8159 63.9757C43.7821 64.0439 43.7653 64.142 43.7653 64.27C43.7653 64.398 43.7906 64.526 43.8413 64.654C43.8877 64.782 43.9679 64.8887 44.0819 64.974ZM45.0191 64.334C45.0148 64.381 45.0085 64.4258 45.0001 64.4684C44.8059 64.4258 44.6412 64.3447 44.5062 64.2252C44.3753 64.1058 44.2782 63.9778 44.2149 63.8413C44.312 63.7431 44.4133 63.6215 44.5188 63.4765C44.6286 63.3271 44.732 63.1714 44.8291 63.0093C44.8629 63.1842 44.903 63.3719 44.9494 63.5725C45.0001 63.7687 45.0254 63.9671 45.0254 64.1676C45.0254 64.2316 45.0233 64.2871 45.0191 64.334ZM44.7721 64.8332C44.6877 64.8674 44.6201 64.8844 44.5695 64.8844C44.4048 64.8844 44.2761 64.8204 44.1832 64.6924C44.0945 64.5602 44.0502 64.4172 44.0502 64.2636C44.0502 64.1186 44.0967 64.0439 44.1895 64.0396C44.2571 64.1463 44.3584 64.253 44.4935 64.3596C44.6328 64.4663 44.7911 64.5367 44.9684 64.5708C44.922 64.7116 44.8565 64.7991 44.7721 64.8332Z" fill="#873C1B"/>
<path d="M47.4538 63.7881H60.6462V64.0548H47.4538V63.7881Z" fill="#873C1B"/>
<path d="M31.8867 63.7881H18.6943V64.0548H31.8867V63.7881Z" fill="#873C1B"/>
</svg>
