<svg width="146" height="141" viewBox="0 0 146 141" fill="none" xmlns="http://www.w3.org/2000/svg">
<path fill-rule="evenodd" clip-rule="evenodd" d="M33.8433 49.0946V49.2664L33.6742 49.4382V80.5339C33.6742 81.5647 34.3506 82.2519 35.3653 82.2519H35.7035L109.096 68.5079C109.941 68.3361 110.449 67.6489 110.449 66.7899V36.0378C110.449 35.8365 110.391 35.6942 110.342 35.5763C110.308 35.4929 110.279 35.4218 110.279 35.3506V35.1788C105.375 26.417 96.2436 20.7476 83.8988 18.8578C82.7151 17.6552 81.3622 16.968 79.8403 16.6244C80.0094 12.8448 79.6712 4.25486 72.0614 0.131668C71.2158 -0.211931 70.2012 0.131668 69.6939 0.990667C69.1866 1.84966 69.5248 2.88046 70.3703 3.39586C76.289 6.48826 76.6272 13.7038 76.289 16.7962C75.1053 16.968 73.9215 17.4834 72.9069 18.3424C70.3703 18.3424 67.6646 18.5142 65.128 18.8578C64.7898 19.0296 64.4516 19.2014 64.2825 19.3732L34.1815 48.5792L34.0124 48.751C34.0124 48.8369 33.9701 48.8798 33.9279 48.9228C33.8856 48.9657 33.8433 49.0087 33.8433 49.0946ZM73.3578 23.2041C74.0337 21.2733 75.8496 19.8886 77.9801 19.8886C80.6858 19.8886 82.8842 22.122 82.8842 24.8708C82.8842 26.9285 81.6523 28.6974 79.8978 29.4568C79.5 29 79 28.5 79 28.5L74.6453 24.5C74.6453 24.5 74.6453 24.5 73.3578 23.2041ZM70.3765 28.0447C70 27 69.8962 26.4431 69.863 25.3862C69.8179 23.9534 70.0321 22.981 70.5394 21.7784C70.041 21.8245 69.5668 21.8705 69.1267 21.9132C67.9243 22.03 66.976 22.122 66.4809 22.122L64.6573 23.8893C64.9788 23.8623 65.3527 23.8402 65.7683 23.8156C66.3783 23.7794 67.0781 23.738 67.8337 23.6682C66.1427 27.9632 68.1719 32.7736 72.2305 34.6634C75.308 36.0964 78.8716 35.1586 81.2256 32.8239C80.3291 33.1991 79.4799 33.4215 78.3183 33.4608C76.8569 33.5103 75.9749 33.3416 74.6453 32.733C73.6012 32.255 73.0344 31.8925 72.2305 31.0804C71.2533 30.0932 70.8675 29.4068 70.3765 28.0447ZM86.2643 25.5561C93.1795 27.4385 98.4735 30.6698 102.323 35.3397L105.883 34.6634C101.655 28.6504 94.8907 24.5272 85.9281 22.8092C86.0972 23.4964 86.2663 24.1836 86.2663 24.8708C86.2747 25.1015 86.2739 25.33 86.2643 25.5561ZM37.0563 71.1397L104.53 58.8871V65.7168L107.066 65.2437V56.9973L37.0563 69.8823V71.1397ZM104.361 53.8875L107.066 53.3896V48.2356L37.0563 61.1205V63.715L104.361 51.328V53.8875ZM37.0563 52.5643L52.6141 49.61L104.53 39.9892V45.2664L107.066 44.7996V37.9276L55.1507 47.7202L37.0563 51.1562V52.5643Z" fill="#873C1B"/>
<path d="M2.49827 127.046C3.46982 127.359 4.49342 127.515 5.56906 127.515C7.99794 127.515 10.4095 127.029 12.8036 126.056C15.2325 125.119 17.5052 123.799 19.6218 122.098C21.7384 120.362 23.6121 118.348 25.2429 116.056C26.9085 113.729 28.2096 111.194 29.1465 108.451C30.0833 105.673 30.5518 102.773 30.5518 99.7524C30.5518 97.0786 30.118 94.6653 29.2506 92.5123C28.3831 90.3594 26.9952 88.6579 25.0868 87.4078C23.2131 86.123 20.7148 85.4806 17.592 85.4806C15.3713 85.4806 13.2721 85.8105 11.2943 86.4703C9.31647 87.0953 7.56421 87.9287 6.03749 88.9704C4.54546 90.0122 3.36573 91.1581 2.49827 92.4082C1.66551 93.6235 1.24914 94.8389 1.24914 96.0543C1.24914 96.8529 1.47467 97.5474 1.92575 98.1377C2.41153 98.6933 3.22693 98.9711 4.37197 98.9711C4.19848 98.4503 4.11174 97.8079 4.11174 97.0439C4.11174 95.134 4.63221 93.4152 5.67316 91.8873C6.7141 90.3594 8.13673 89.1441 9.94103 88.2412C11.7453 87.3384 13.7752 86.8869 16.0306 86.8869C19.1881 86.8869 21.7558 87.8766 23.7336 89.8559C25.7114 91.8352 26.7003 94.9431 26.7003 99.1795C26.7003 101.749 26.3186 104.336 25.5552 106.94C24.8266 109.51 23.7856 111.958 22.4324 114.285C21.0792 116.577 19.5004 118.625 17.6961 120.431C15.9265 122.202 14.0007 123.591 11.9188 124.598C9.87164 125.64 7.7377 126.161 5.51701 126.161C4.85775 126.161 4.11174 126.091 3.27898 125.952C3.83415 123.452 4.52812 120.674 5.36087 117.618C6.19363 114.563 7.11313 111.437 8.11938 108.243C9.12563 105.013 10.1666 101.888 11.2422 98.867C12.3526 95.8459 13.4456 93.0853 14.5212 90.5851C14.0354 90.2379 13.5496 90.0643 13.0639 90.0643C12.3699 90.0643 11.7453 90.3941 11.1902 91.0539C10.635 91.7137 10.1666 92.4429 9.78489 93.2416C9.40321 94.0055 9.14298 94.5785 9.00418 94.9604C8.6919 95.7591 8.25817 96.9918 7.703 98.6586C7.14783 100.325 6.50591 102.27 5.77725 104.492C5.08329 106.68 4.37197 108.989 3.64331 111.42C2.91465 113.851 2.22069 116.264 1.56142 118.66C0.936852 121.021 0.416378 123.192 0 125.171C0.693964 126.143 1.52672 126.768 2.49827 127.046Z" fill="#873C1B"/>
<path d="M36.9703 125.9C38.4623 126.977 40.1972 127.515 42.175 127.515C43.8405 127.515 45.5928 127.098 47.4318 126.265C49.3055 125.466 51.1271 124.268 52.8967 122.671C54.6663 121.039 56.2625 119.042 57.6851 116.681C59.1424 114.319 60.2874 111.594 61.1202 108.503C61.9877 105.378 62.4214 101.923 62.4214 98.1377C62.4214 97.1307 62.352 96.0543 62.2132 94.9083C62.1091 93.7277 61.8836 92.6339 61.5366 91.6269C61.2243 90.5851 60.7732 89.7344 60.1834 89.0746C59.6282 88.4148 58.8995 88.085 57.9974 88.085C57.1299 88.085 56.1584 88.4322 55.0827 89.1267C54.0071 89.7865 52.9661 90.6546 51.9599 91.731C50.9883 92.7728 50.1729 93.8666 49.5137 95.0125C48.8891 96.1237 48.5768 97.1481 48.5768 98.0856C48.5768 98.6412 48.7676 99.1621 49.1493 99.6483C49.5657 100.1 50.2076 100.43 51.0751 100.638C51.2833 99.6656 51.6476 98.5544 52.1681 97.3043C52.6885 96.0195 53.2784 94.7868 53.9377 93.6062C54.6316 92.4255 55.343 91.4532 56.0716 90.6893C56.8003 89.8906 57.4769 89.4913 58.1015 89.4913C58.6913 89.4913 59.1598 89.8906 59.5067 90.6893C59.8537 91.488 60.0966 92.4429 60.2354 93.5541C60.3742 94.6653 60.4436 95.707 60.4436 96.6793C60.4436 99.1448 60.166 101.732 59.6108 104.44C59.0904 107.114 58.327 109.718 57.3208 112.253C56.3492 114.754 55.1695 117.028 53.7815 119.077C52.4283 121.125 50.9016 122.74 49.2014 123.921C47.5012 125.136 45.6795 125.744 43.7364 125.744C42.1056 125.744 40.7697 125.258 39.7288 124.285C38.6878 123.348 37.9245 122.08 37.4387 120.483C36.9876 118.886 36.7621 117.167 36.7621 115.326C36.7621 112.792 37.1437 110.17 37.9071 107.461C38.6705 104.753 39.7114 102.148 41.0299 99.6483C42.3485 97.1134 43.8405 94.8389 45.506 92.8249C47.1715 90.7761 48.9238 89.1614 50.7628 87.9808C52.6018 86.7654 54.4234 86.1577 56.2278 86.1577H56.8523C56.089 85.741 55.048 85.5327 53.7295 85.5327C51.7517 85.5327 49.7392 86.1056 47.692 87.2515C45.6448 88.3975 43.7017 89.9601 41.8627 91.9394C40.0237 93.884 38.3755 96.1063 36.9182 98.6065C35.4609 101.107 34.2985 103.728 33.431 106.472C32.5983 109.215 32.1819 111.923 32.1819 114.597C32.1819 117.202 32.5983 119.476 33.431 121.421C34.2985 123.365 35.4782 124.858 36.9703 125.9Z" fill="#873C1B"/>
<path fill-rule="evenodd" clip-rule="evenodd" d="M79.7108 126.734C81.2376 127.254 82.6255 127.515 83.8746 127.515C85.1238 127.515 86.1994 127.168 87.1016 126.473C88.0384 125.813 88.7844 124.685 89.3396 123.087C88.264 123.643 87.0322 123.921 85.6442 123.921C83.7358 123.921 81.5499 123.574 79.0863 122.879C76.6574 122.15 74.2459 121.421 71.8517 120.691C72.858 119.164 73.7948 117.427 74.6623 115.483C75.5297 113.503 76.3451 111.42 77.1085 109.232C77.9065 107.045 78.6526 104.892 79.3465 102.773H80.3354C82.452 102.739 84.291 102.339 85.8524 101.575C87.4139 100.777 88.6977 99.7698 89.7039 98.5544C90.7102 97.3044 91.4562 96.0022 91.942 94.6479C92.4277 93.2589 92.6706 91.9741 92.6706 90.7935C92.6706 89.4045 92.393 88.328 91.8379 87.5641C91.2827 86.8001 90.6061 86.2619 89.808 85.9494C89.0447 85.6369 88.316 85.4806 87.622 85.4806C85.8871 85.4806 84.3431 86.2098 82.9898 87.6683C81.6366 89.092 80.4222 90.9845 79.3465 93.3457C78.3056 95.707 77.334 98.2766 76.4319 101.055C75.5644 100.568 74.8531 99.8913 74.2979 99.0232C73.7428 98.1204 73.4652 97.0092 73.4652 95.6897C73.4652 95.2035 73.5172 94.6305 73.6213 93.9708C73.7254 93.311 73.8989 92.8075 74.1418 92.4603C73.1702 92.4603 72.3895 92.929 71.7997 93.8666C71.2098 94.7694 70.9149 95.6723 70.9149 96.5751C70.9149 97.7558 71.3659 98.8496 72.2681 99.8566C73.2049 100.864 74.4714 101.628 76.0675 102.148L73.9856 108.711C73.2917 110.899 72.5804 112.965 71.8517 114.91C71.1577 116.854 70.3944 118.556 69.5616 120.014C68.3819 119.702 67.2368 119.441 66.1265 119.233C65.0509 119.025 64.062 118.92 63.1598 118.92C61.7719 118.92 60.8003 119.146 60.2452 119.598C59.6553 120.049 59.3604 120.587 59.3604 121.212C59.3604 121.768 59.5685 122.393 59.9849 123.087C60.3666 123.817 60.9565 124.442 61.7545 124.963C62.5179 125.483 63.4547 125.744 64.5651 125.744C65.6754 125.744 66.699 125.466 67.6359 124.91C68.5727 124.39 69.4749 123.643 70.3423 122.671C71.9038 123.365 73.4825 124.077 75.0786 124.806C76.6748 125.57 78.2188 126.213 79.7108 126.734ZM83.8746 100.482C82.6255 101.35 81.2202 101.784 79.6588 101.784C80.561 99.11 81.4284 96.6446 82.2612 94.3875C83.1286 92.0956 84.0308 90.2552 84.9676 88.8662C85.9045 87.4773 86.9107 86.7828 87.9864 86.7828C88.4721 86.7828 88.9059 86.9738 89.2876 87.3557C89.6692 87.703 89.8601 88.3801 89.8601 89.3871C89.8601 90.4289 89.6172 91.6442 89.1314 93.0332C88.6803 94.4222 88.0037 95.7938 87.1016 97.1481C86.2341 98.4676 85.1585 99.5788 83.8746 100.482ZM66.4908 123.608C65.8316 124.025 65.1203 124.233 64.3569 124.233C63.2813 124.233 62.4138 123.886 61.7545 123.192C61.0606 122.497 60.7136 121.855 60.7136 121.264C60.7136 120.952 60.835 120.709 61.0779 120.535C61.3208 120.362 61.7719 120.275 62.4311 120.275C63.2639 120.275 64.1834 120.431 65.1897 120.743C66.2306 121.021 67.2889 121.386 68.3645 121.837C67.8094 122.601 67.1848 123.192 66.4908 123.608Z" fill="#873C1B"/>
<path d="M97.4948 125.64C99.0215 126.89 101.017 127.515 103.48 127.515C105.805 127.515 107.974 126.942 109.986 125.796C111.999 124.685 113.82 123.192 115.451 121.316C117.082 119.407 118.47 117.323 119.615 115.066L118.886 114.545C117.984 116.524 116.77 118.365 115.243 120.066C113.716 121.768 112.033 123.14 110.194 124.181C108.39 125.223 106.568 125.744 104.729 125.744C102.994 125.744 101.572 125.258 100.461 124.285C99.3858 123.348 98.6051 122.115 98.1193 120.587C97.6336 119.025 97.3907 117.393 97.3907 115.691C97.3907 113.33 97.7377 110.847 98.4316 108.243C99.1603 105.638 100.132 103.086 101.346 100.586C102.561 98.0856 103.914 95.8286 105.406 93.8145C106.933 91.7658 108.494 90.1337 110.09 88.9183C111.721 87.703 113.282 87.0953 114.774 87.0953C115.677 87.0953 116.319 87.321 116.7 87.7724C117.117 88.1891 117.325 88.7447 117.325 89.4392C117.325 90.1684 117.134 91.0192 116.752 91.9915C116.405 92.929 115.937 93.9013 115.347 94.9083C114.757 95.8806 114.133 96.8182 113.473 97.721C112.849 98.5892 112.276 99.3184 111.756 99.9087C111.964 100.36 112.207 100.673 112.484 100.846C112.797 101.02 113.092 101.107 113.369 101.107C114.098 101.107 114.809 100.725 115.503 99.9608C116.232 99.1969 116.891 98.2419 117.481 97.096C118.071 95.9154 118.539 94.7 118.886 93.4499C119.233 92.1651 119.407 91.0192 119.407 90.0122C119.407 88.3801 118.956 87.2342 118.053 86.5744C117.186 85.8799 116.041 85.5327 114.618 85.5327C112.641 85.5327 110.628 86.1056 108.581 87.2515C106.568 88.3627 104.643 89.908 102.804 91.8873C100.965 93.8319 99.3164 96.0716 97.8591 98.6065C96.4365 101.107 95.3088 103.746 94.476 106.524C93.6433 109.302 93.2269 112.062 93.2269 114.806C93.2269 116.924 93.5565 118.955 94.2158 120.9C94.9097 122.844 96.0027 124.424 97.4948 125.64Z" fill="#873C1B"/>
<path d="M124.348 126.213C125.875 127.081 127.679 127.515 129.761 127.515C132.086 127.515 134.255 126.959 136.267 125.848C138.28 124.772 140.101 123.296 141.732 121.421C143.363 119.546 144.786 117.427 146 115.066L145.271 114.545C144.369 116.524 143.155 118.365 141.628 120.066C140.101 121.768 138.418 123.14 136.579 124.181C134.775 125.223 132.953 125.744 131.114 125.744C129.484 125.744 128.182 125.345 127.211 124.546C126.239 123.782 125.528 122.827 125.077 121.681C124.661 120.5 124.452 119.337 124.452 118.191C124.452 116.351 124.921 114.493 125.858 112.618C126.829 110.743 128.165 109.111 129.865 107.722C131.6 106.333 133.63 105.447 135.955 105.065C134.706 103.989 133.89 102.721 133.509 101.263C133.127 99.8045 132.936 98.4503 132.936 97.2002C132.936 95.2903 133.214 93.5541 133.769 91.9915C134.359 90.3941 135.209 89.1267 136.319 88.1891C137.43 87.2168 138.783 86.7307 140.379 86.7307C141.593 86.7307 142.513 87.0258 143.137 87.6162C143.762 88.2065 144.074 89.0399 144.074 90.1163C144.074 91.4706 143.641 92.7554 142.773 93.9708C141.94 95.1514 140.917 96.28 139.702 97.3564C139.91 97.8079 140.188 98.2072 140.535 98.5544C140.882 98.867 141.246 99.0232 141.628 99.0232C142.218 99.0232 142.825 98.6412 143.45 97.8773C144.109 97.1134 144.664 96.1237 145.115 94.9083C145.566 93.693 145.792 92.4429 145.792 91.1581C145.792 89.3524 145.289 87.9634 144.282 86.9911C143.276 86.0188 141.802 85.5327 139.858 85.5327C137.811 85.5327 135.972 86.0536 134.341 87.0953C132.711 88.1023 131.427 89.4392 130.49 91.106C129.588 92.7381 129.137 94.4743 129.137 96.3147C129.137 97.7731 129.449 99.2316 130.074 100.69C130.733 102.148 131.739 103.433 133.092 104.544C131.219 104.718 129.466 105.222 127.835 106.055C126.205 106.854 124.765 107.895 123.516 109.18C122.301 110.43 121.347 111.819 120.653 113.347C119.959 114.875 119.612 116.438 119.612 118.035C119.612 119.736 120.011 121.316 120.809 122.775C121.642 124.199 122.822 125.345 124.348 126.213Z" fill="#873C1B"/>
<path d="M54.6215 140.444C54.9916 140.815 55.4542 141 56.0094 141C56.5761 141 57.1371 140.844 57.6923 140.531C58.2474 140.219 58.7563 139.79 59.219 139.246C59.6816 138.691 60.046 138.066 60.312 137.371L60.0864 137.198C59.8436 137.834 59.5197 138.39 59.1149 138.864C58.7101 139.339 58.2706 139.704 57.7964 139.958C57.3337 140.213 56.8711 140.34 56.4084 140.34C55.9111 140.34 55.5757 140.19 55.4022 139.889C55.2287 139.588 55.1419 139.258 55.1419 138.899C55.1419 138.471 55.2287 138.014 55.4022 137.528C55.5872 137.041 55.8186 136.578 56.0961 136.139C56.3853 135.699 56.6918 135.34 57.0156 135.062C57.3511 134.784 57.6749 134.645 57.9872 134.645C58.1376 134.645 58.2359 134.686 58.2821 134.767C58.34 134.836 58.3689 134.941 58.3689 135.079C58.3689 135.334 58.3053 135.606 58.178 135.895C58.0508 136.173 57.9005 136.358 57.727 136.451C57.8658 136.625 58.0335 136.712 58.2301 136.712C58.4961 136.712 58.7043 136.584 58.8547 136.33C59.0166 136.075 59.0975 135.78 59.0975 135.444C59.0975 135.143 59.0108 134.854 58.8373 134.576C58.6638 134.298 58.34 134.159 57.8658 134.159C57.4262 134.159 56.981 134.292 56.5299 134.559C56.0788 134.813 55.6682 135.16 55.2981 135.6C54.928 136.04 54.6273 136.538 54.3959 137.093C54.1762 137.638 54.0663 138.199 54.0663 138.778C54.0663 139.518 54.2514 140.074 54.6215 140.444Z" fill="#873C1B"/>
<path d="M60.2988 140.479C60.5417 140.722 60.8424 140.844 61.201 140.844C61.6289 140.844 62.0453 140.676 62.4501 140.34C62.8665 140.005 63.3234 139.501 63.8207 138.83C63.786 139.015 63.7687 139.183 63.7687 139.333C63.7687 139.634 63.867 139.912 64.0636 140.167C64.2718 140.421 64.5898 140.549 65.0178 140.549C65.4342 140.549 65.8563 140.415 66.2843 140.149C66.7238 139.883 67.1344 139.513 67.5161 139.038C67.8977 138.563 68.21 138.014 68.4529 137.389L68.2794 137.215C67.7589 138.129 67.2443 138.818 66.7354 139.281C66.2264 139.733 65.8158 139.958 65.5036 139.958C65.2954 139.958 65.145 139.877 65.0525 139.715C64.96 139.542 64.9137 139.368 64.9137 139.194C64.9137 138.986 64.9657 138.766 65.0698 138.535C65.1739 138.291 65.2896 138.054 65.4168 137.823C65.544 137.591 65.6597 137.389 65.7638 137.215C65.8679 137.03 65.9199 136.885 65.9199 136.781C65.9199 136.654 65.8332 136.555 65.6597 136.486C65.4862 136.405 65.3474 136.358 65.2433 136.347C65.2318 136.347 65.2028 136.382 65.1566 136.451C64.9253 136.798 64.6592 137.18 64.3585 137.597C64.0578 138.014 63.7397 138.419 63.4043 138.812C63.0805 139.194 62.7624 139.513 62.4501 139.767C62.1378 140.01 61.8487 140.132 61.5827 140.132C61.2704 140.132 61.1142 139.906 61.1142 139.455C61.1142 139.119 61.1836 138.737 61.3224 138.309C61.4612 137.881 61.6521 137.447 61.895 137.007C62.1378 136.567 62.4154 136.162 62.7277 135.791C63.04 135.409 63.3638 135.108 63.6993 134.888C64.0347 134.657 64.3643 134.541 64.6882 134.541C65.0004 134.541 65.2202 134.64 65.3474 134.836C65.4746 135.022 65.5383 135.247 65.5383 135.514C65.5383 135.71 65.5093 135.913 65.4515 136.121C65.706 136.121 65.9084 136.069 66.0587 135.965C66.2207 135.861 66.3016 135.664 66.3016 135.375C66.3016 134.981 66.1513 134.669 65.8505 134.437C65.5498 134.194 65.1739 134.072 64.7229 134.072C64.2718 134.072 63.8149 134.188 63.3523 134.42C62.9012 134.651 62.4675 134.964 62.0511 135.357C61.6463 135.739 61.2819 136.167 60.9581 136.642C60.6342 137.105 60.3798 137.58 60.1947 138.066C60.0097 138.54 59.9172 138.986 59.9172 139.403C59.9172 139.889 60.0444 140.248 60.2988 140.479Z" fill="#873C1B"/>
<path fill-rule="evenodd" clip-rule="evenodd" d="M72.8517 140.358C73.083 140.578 73.3606 140.687 73.6845 140.687C74.0893 140.687 74.4941 140.525 74.8989 140.201C75.3153 139.889 75.6912 139.484 76.0266 138.986C76.362 138.477 76.6107 137.938 76.7726 137.371L76.5991 137.198C76.2406 137.985 75.8473 138.656 75.4194 139.212C74.9914 139.756 74.5288 140.028 74.0315 140.028C73.8001 140.028 73.6035 139.935 73.4416 139.75C73.2797 139.553 73.1409 139.322 73.0252 139.055C72.9211 138.789 72.8401 138.535 72.7823 138.291C72.7245 138.048 72.6898 137.881 72.6782 137.788C72.8517 137.788 73.0715 137.753 73.3375 137.684C73.6151 137.603 73.8869 137.487 74.1529 137.337C74.4305 137.174 74.6618 136.966 74.8469 136.712C75.0435 136.445 75.1418 136.127 75.1418 135.757C75.1418 135.328 74.9914 134.964 74.6907 134.663C74.39 134.362 74.0257 134.211 73.5977 134.211C73.1698 134.211 72.7592 134.373 72.3659 134.697C71.9727 135.022 71.6084 135.438 71.2729 135.948C70.9375 136.457 70.6368 136.989 70.3708 137.545C70.1163 138.1 69.8966 138.61 69.7115 139.073C69.7115 138.471 69.8041 137.73 69.9891 136.85C70.1857 135.959 70.4749 135.045 70.8566 134.107C71.3655 133.795 71.8339 133.418 72.2619 132.979C72.7014 132.539 73.0773 132.07 73.3895 131.572C73.7134 131.075 73.9621 130.583 74.1356 130.096C74.309 129.599 74.3958 129.153 74.3958 128.76C74.3958 128.447 74.3437 128.181 74.2396 127.961C74.1471 127.741 74.0199 127.631 73.858 127.631C73.6498 127.631 73.378 127.822 73.0426 128.204C72.7071 128.586 72.3428 129.101 71.9496 129.749C71.5563 130.397 71.1631 131.121 70.7698 131.919C70.3766 132.718 70.0122 133.546 69.6768 134.402C69.353 135.247 69.0928 136.063 68.8961 136.85C68.6995 137.638 68.6012 138.332 68.6012 138.934C68.6012 139.2 68.607 139.461 68.6185 139.715C68.6417 139.958 68.6937 140.161 68.7747 140.323C68.8672 140.485 69.0118 140.566 69.2084 140.566C69.3472 140.566 69.4802 140.525 69.6074 140.444C69.7347 140.375 69.833 140.236 69.9024 140.028C69.9949 139.761 70.1106 139.426 70.2494 139.021C70.3881 138.616 70.5559 138.187 70.7525 137.736C70.9491 137.284 71.1689 136.862 71.4117 136.468C71.6662 136.063 71.9496 135.739 72.2619 135.496C72.5741 135.241 72.9095 135.114 73.2681 135.114C73.4994 135.114 73.7018 135.184 73.8753 135.323C74.0488 135.461 74.1356 135.652 74.1356 135.895C74.1356 136.185 74.043 136.439 73.858 136.659C73.6845 136.868 73.4705 137.041 73.216 137.18C72.9616 137.308 72.7129 137.406 72.47 137.475C72.2271 137.533 72.0421 137.562 71.9149 137.562C71.9149 137.828 71.9438 138.141 72.0016 138.5C72.071 138.847 72.1693 139.189 72.2965 139.524C72.4353 139.86 72.6204 140.138 72.8517 140.358ZM72.5394 131.954C72.1462 132.498 71.6835 132.984 71.1515 133.413C71.4869 132.637 71.8339 131.92 72.1925 131.26C72.551 130.588 72.8691 130.05 73.1467 129.645C73.4358 129.24 73.6382 129.037 73.7539 129.037C73.7886 129.037 73.8059 129.089 73.8059 129.194C73.8059 129.483 73.696 129.882 73.4763 130.392C73.2565 130.889 72.9443 131.41 72.5394 131.954Z" fill="#873C1B"/>
<path fill-rule="evenodd" clip-rule="evenodd" d="M77.1593 140.201C77.5179 140.595 78.0499 140.792 78.7554 140.792C79.3337 140.792 79.9005 140.647 80.4556 140.358C81.0224 140.08 81.5429 139.686 82.0171 139.177C82.5028 138.668 82.9019 138.066 83.2141 137.371L83.006 137.215C82.7168 137.771 82.364 138.28 81.9477 138.743C81.5313 139.206 81.0802 139.582 80.5944 139.871C80.1087 140.149 79.6171 140.288 79.1198 140.288C78.5877 140.288 78.2234 140.138 78.0268 139.837C77.8417 139.524 77.7492 139.189 77.7492 138.83C77.7492 138.737 77.755 138.639 77.7665 138.535C77.7781 138.43 77.7954 138.32 77.8186 138.205C78.3159 138.158 78.8133 138.043 79.3106 137.857C79.8195 137.661 80.2822 137.412 80.6985 137.111C81.1265 136.81 81.4677 136.468 81.7221 136.086C81.9881 135.693 82.1212 135.276 82.1212 134.836C82.1212 134.408 82.0055 134.125 81.7742 133.986C81.5544 133.847 81.3115 133.777 81.0455 133.777C80.5366 133.777 80.0219 133.939 79.5014 134.263C78.981 134.576 78.501 134.987 78.0615 135.496C77.6335 136.005 77.2865 136.549 77.0205 137.128C76.7661 137.707 76.6388 138.257 76.6388 138.778C76.6388 139.345 76.8123 139.819 77.1593 140.201ZM78.9636 137.423C78.5704 137.62 78.2176 137.771 77.9053 137.875C78.021 137.458 78.1945 137.041 78.4258 136.625C78.6571 136.208 78.9174 135.826 79.2065 135.479C79.4957 135.132 79.7964 134.854 80.1087 134.645C80.4209 134.425 80.7159 134.316 80.9935 134.316C81.1438 134.316 81.2421 134.35 81.2884 134.42C81.3347 134.489 81.3578 134.588 81.3578 134.715C81.3578 135.085 81.2364 135.438 80.9935 135.774C80.7621 136.11 80.4614 136.416 80.0913 136.694C79.7328 136.972 79.3569 137.215 78.9636 137.423Z" fill="#873C1B"/>
<path fill-rule="evenodd" clip-rule="evenodd" d="M83.7868 140.549C84.1106 140.792 84.5444 140.913 85.088 140.913C85.5853 140.913 86.0306 140.797 86.4239 140.566C86.8287 140.334 87.1236 139.97 87.3087 139.472C87.8291 139.391 88.3091 139.189 88.7486 138.864C89.1882 138.529 89.5178 138.043 89.7375 137.406L89.5814 137.232C89.246 137.881 88.899 138.355 88.5405 138.656C88.1819 138.945 87.8002 139.125 87.3954 139.194C87.4648 138.928 87.4995 138.645 87.4995 138.344C87.4995 137.811 87.4243 137.302 87.274 136.816C87.1236 136.318 86.9733 135.849 86.8229 135.409C86.6725 134.958 86.5974 134.541 86.5974 134.159C86.5974 133.962 86.6147 133.8 86.6494 133.673C86.6841 133.546 86.7015 133.453 86.7015 133.395C86.7015 133.245 86.6089 133.17 86.4239 133.17C86.2619 133.17 86.1058 133.262 85.9554 133.447C85.8167 133.621 85.7473 133.922 85.7473 134.35V134.559C85.5275 135.022 85.273 135.461 84.9839 135.878C84.6947 136.295 84.3767 136.694 84.0297 137.076C83.9834 137.122 83.8967 137.169 83.7695 137.215C83.6538 137.261 83.5266 137.331 83.3878 137.423C83.2605 137.516 83.1507 137.655 83.0581 137.84C82.9656 138.025 82.9193 138.291 82.9193 138.639C82.9193 138.986 82.9887 139.333 83.1275 139.68C83.2548 140.028 83.4745 140.317 83.7868 140.549ZM86.3545 138.812C86.3429 138.94 86.3256 139.061 86.3024 139.177C85.7704 139.061 85.3193 138.841 84.9492 138.517C84.5906 138.193 84.3246 137.846 84.1511 137.475C84.4172 137.209 84.6947 136.879 84.9839 136.486C85.2846 136.081 85.568 135.658 85.834 135.218C85.9265 135.693 86.0364 136.202 86.1636 136.746C86.3024 137.279 86.3718 137.817 86.3718 138.361C86.3718 138.535 86.366 138.685 86.3545 138.812ZM85.6779 140.167C85.4465 140.259 85.2615 140.306 85.1227 140.306C84.6716 140.306 84.3188 140.132 84.0644 139.785C83.8215 139.426 83.7001 139.038 83.7001 138.621C83.7001 138.228 83.8273 138.025 84.0817 138.014C84.2668 138.303 84.5444 138.592 84.9145 138.882C85.2962 139.171 85.7299 139.362 86.2157 139.455C86.0884 139.837 85.9092 140.074 85.6779 140.167Z" fill="#873C1B"/>
<path d="M93.025 137.331H129.169V138.055H93.025V137.331Z" fill="#873C1B"/>
<path d="M50.3751 137.331H14.2311V138.055H50.3751V137.331Z" fill="#873C1B"/>
<circle cx="78.5" cy="24.5" r="5.5" fill="#D13737"/>
</svg>
